<svg xmlns="http://www.w3.org/2000/svg" xml:space="preserve" id="Layer_1" x="0" y="0" style="enable-background:new 0 0 1353.31 241.11" version="1.1" viewBox="0 0 1353.3 241.1"><style>.st0{fill:#fdc42f}.st1{fill:#528bc9}.st2{fill:#7ab9b4}.st3{fill:#f39437}.st4{fill:#f096b4}.st5{fill:#ec612e}</style><path d="M50.4 202.6h138.9c5.2 0 9.4.5 12.7 1.7 3.4 1 6 2.5 7.8 4.2 1.8 1.8 3 3.8 3.7 6.2a28.5 28.5 0 0 1 0 14.4c-.6 2.3-1.9 4.3-3.7 6a19.4 19.4 0 0 1-7.8 4.2c-3.3 1-7.5 1.5-12.7 1.5H28c-5.2 0-9.2-.5-12.2-1.5s-5.2-2.4-6.8-4.1a11.8 11.8 0 0 1-2.9-6.1c-.4-2.3-.5-4.9-.5-7.7v-48.2c0-9.2 2.2-15.5 6.7-19 4.6-3.4 9.8-5 15.7-5 3 0 5.8.3 8.5 1 2.6.8 5 2 7 3.9s3.7 4.3 5 7.5c1.3 3.1 2 7 2 11.6v29.4z" class="st0"/><path d="M110.2 18.9C100 7 84.2 1 62.6 1S25.2 7.1 15.1 19C5.1 30.7 0 47.5 0 69.6c0 22.1 5 39 15 50.7 10 11.6 25.8 17.4 47.6 17.4 21.7 0 37.5-5.5 47.6-16.4 10-11 15-28.3 15-51.7 0-22-5-39-15-50.7zM79.4 82.3c-.5 3.9-1.3 7.2-2.5 10s-3 5-5.3 6.5a15.7 15.7 0 0 1-9 2.4c-3.7 0-6.7-.8-9-2.4-2.3-1.6-4-3.7-5.2-6.5-1.2-2.8-2-6.1-2.5-10a108.7 108.7 0 0 1 0-25.5c.4-3.9 1.2-7.2 2.5-10 1.2-2.7 2.9-5 5.2-6.5 2.3-1.5 5.3-2.3 9-2.3s6.7.8 9 2.3c2.4 1.6 4.1 3.8 5.3 6.5 1.2 2.8 2 6.1 2.5 10a108.7 108.7 0 0 1 0 25.5z" class="st1"/><path d="M162.1 24.1c0-9.2 2.3-15.6 6.8-19 4.5-3.4 9.8-5.1 15.7-5.1 3 0 5.7.4 8.4 1.1 2.7.8 5 2 7 3.9 2.1 1.8 3.8 4.3 5 7.5 1.4 3.1 2 7 2 11.6v33.5h20.2c5.2 0 9.5.6 12.8 1.7 3.3 1.1 6 2.5 7.8 4.3 1.8 1.8 3 3.8 3.7 6.1a28 28 0 0 1 0 14.4c-.7 2.3-1.9 4.4-3.7 6.1a19.3 19.3 0 0 1-7.8 4.2c-3.3 1-7.6 1.5-12.8 1.5H207v36.3c0 4.8-.6 8.8-2 12-1.2 3-2.9 5.6-5 7.4-2 1.9-4.3 3.1-7 3.9a31.6 31.6 0 0 1-16.9 0A18.3 18.3 0 0 1 164 144a33.7 33.7 0 0 1-1.8-11.9v-108z" class="st2"/><path d="M325.6 90.6h35c5.1 0 9.4.5 12.7 1.6 3.3 1 6 2.4 7.8 4.1 1.8 1.8 3 3.8 3.7 6 .6 2.2 1 4.4 1 6.6 0 2.8-.3 5.3-1 7.6-.6 2.4-1.9 4.4-3.7 6.1a19.3 19.3 0 0 1-7.8 4.2c-3.3 1-7.6 1.5-12.7 1.5h-57.4c-5.2 0-9.2-.5-12.2-1.5s-5.2-2.4-6.8-4.2a11.7 11.7 0 0 1-2.9-6c-.4-2.4-.6-5-.6-7.7V27c0-9.3 2.3-15.6 6.8-19 4.6-3.4 9.8-5.1 15.7-5.1 3 0 5.8.3 8.4 1 2.7.8 5 2.1 7.1 4 2 1.8 3.7 4.3 5 7.4 1.3 3.2 2 7 2 11.7v63.7z" class="st3"/><path d="M500.2 173.2a37.3 37.3 0 0 0-22.3-26.5c-6.2-2.6-14-4-23.4-4H336c-9.4.2-17.2 1.6-23.4 4.3-6.2 2.7-11.1 6.3-14.7 10.7a39.3 39.3 0 0 0-7.6 15.5 76.2 76.2 0 0 0 .2 37 39.8 39.8 0 0 0 22.7 26.5 56.4 56.4 0 0 0 22.2 4.4H455c8.7-.2 16-1.6 22-4.4a41.4 41.4 0 0 0 23-26.5 76.3 76.3 0 0 0 .3-37zm-46 27.9a33 33 0 0 1-11.6 2.3h-94.8c-5.3-.3-9.2-1.1-11.6-2.3-2.4-1.2-3.6-4.3-3.6-9.3 0-5.2 1.2-8.4 3.6-9.7a26 26 0 0 1 11.6-2h94.8c5.4 0 9.2.7 11.6 2 2.4 1.3 3.6 4.5 3.6 9.7 0 5-1.2 8-3.6 9.3z" class="st4"/><path d="M476.1 131.4c-5.5 0-10.5-1.5-15-4.5-4.4-3-6.9-8.6-7.4-16.9H414c-5.1 0-9.3-.5-12.4-1.5a17 17 0 0 1-7.4-4.3c-1.7-1.9-2.9-4-3.4-6.3a32.9 32.9 0 0 1 0-14.4c.5-2.3 1.7-4.4 3.4-6.2 1.8-1.8 4.2-3.3 7.4-4.4 3.1-1.1 7.3-1.7 12.4-1.7h39.7V57.1H414c-5.1 0-9.3-.5-12.4-1.5a17 17 0 0 1-7.4-4.3c-1.7-1.9-2.9-4-3.4-6.3a32.9 32.9 0 0 1 0-14.4c.5-2.3 1.7-4.4 3.4-6.2 1.8-1.9 4.2-3.3 7.4-4.5 3.1-1 7.3-1.6 12.4-1.6h40c1-7 3.7-11.8 8-14.4C466.2 1.3 471 0 476 0c3 0 5.8.4 8.5 1.1 2.6.8 5 2 7 3.9 2 1.8 3.7 4.3 5 7.5 1.3 3.1 2 7 2 11.6V107c0 4.8-.7 8.7-2 11.9-1.3 3.1-3 5.6-5 7.5-2 1.8-4.4 3.1-7 3.8-2.7.8-5.5 1.2-8.5 1.2z" class="st5"/><path d="M561.5 71.9c0-2.8.3-5.2 1-7.4.6-2.2 1.8-4.1 3.7-5.8a19 19 0 0 1 7.6-3.8c3.3-1 7.5-1.4 12.7-1.4h90c5 0 9.2.5 12.5 1.4a19 19 0 0 1 7.7 3.8c1.8 1.7 3 3.6 3.7 5.8a26.4 26.4 0 0 1 0 14c-.6 2.2-1.9 4-3.7 5.7-1.8 1.7-4.4 3-7.7 4a44 44 0 0 1-12.6 1.5h-90a44 44 0 0 1-12.6-1.5 20 20 0 0 1-7.6-4c-1.9-1.6-3.1-3.5-3.7-5.7-.7-2.2-1-4.4-1-6.6z" class="st0"/><path d="M578.8 21.1c0-2.7.3-5.2 1-7.4.6-2.2 1.8-4 3.6-5.7a19 19 0 0 1 7.7-3.9c3.3-.9 7.5-1.3 12.6-1.3h55.4c5.1 0 9.4.4 12.6 1.3a19 19 0 0 1 7.7 3.9c1.9 1.6 3 3.5 3.7 5.7a26.4 26.4 0 0 1 0 14c-.6 2.2-1.9 4.1-3.7 5.8-1.8 1.6-4.4 3-7.7 4a44 44 0 0 1-12.6 1.5h-55.4a44 44 0 0 1-12.6-1.5 20 20 0 0 1-7.7-4c-1.8-1.7-3-3.6-3.7-5.8-.6-2.2-1-4.4-1-6.6z" class="st1"/><path d="M687.1 133.2c-2.4-7-5.8-13-10.4-17.7a43.6 43.6 0 0 0-17.6-10.8 79.2 79.2 0 0 0-25.7-3.7 83.2 83.2 0 0 0-27 3.7c-7 2.4-12.9 6-17.3 10.8a43.6 43.6 0 0 0-10 17.6c-2 6.9-3.3 15-3.9 24V185c.6 9 2 16.9 4.1 23.7a43.6 43.6 0 0 0 10 17.3 42.1 42.1 0 0 0 17.4 10.5c7.2 2.4 16 3.6 26.6 3.6 20.7 0 35.5-4.6 44.3-13.7 8.9-9.1 13.5-23 13.9-41.4v-27.7c-.6-9-2-17-4.4-24zm-40 52.5c-.2 4.2-.8 7.5-1.7 9.8-1 2.2-2 4-3.3 5.3a7.9 7.9 0 0 1-4.2 2.3 26.5 26.5 0 0 1-9.5 0 8 8 0 0 1-4.4-2.3c-1.3-1.3-2.3-3-3.1-5.3a30 30 0 0 1-1.3-9.8v-29.6c.2-3.8.8-7 1.7-9.5.9-2.4 2-4.3 3.3-5.6a10 10 0 0 1 4.2-2.6c1.6-.5 3-.7 4.5-.7s3 .2 4.7.6c1.7.3 3.2 1.1 4.5 2.3 1.4 1.2 2.5 3 3.3 5.3.8 2.4 1.3 5.5 1.3 9.4v30.4z" class="st2"/><path d="M728.3 29.6c0-9 2.2-15.4 6.7-18.7a25 25 0 0 1 15.5-5.1c2.9 0 5.7.4 8.3 1 2.7.8 5 2.1 7 4 2 1.8 3.7 4.2 5 7.3 1.3 3.1 1.9 7 1.9 11.6v71h15.6c5.1 0 9.4.6 12.6 1.6 3.3 1.2 5.9 2.6 7.7 4.3 1.8 1.7 3 3.8 3.7 6a27.9 27.9 0 0 1 0 14.3 13 13 0 0 1-3.7 6 19 19 0 0 1-7.7 4.1 44 44 0 0 1-12.6 1.5h-15.6V217c0 4.7-.6 8.7-2 11.8-1.2 3-2.9 5.5-4.9 7.4a17 17 0 0 1-7 3.8 31.4 31.4 0 0 1-16.7 0c-2.6-.7-5-2-7.1-3.8a18.3 18.3 0 0 1-5-7.4c-1.2-3.1-1.8-7-1.8-11.8V29.7z" class="st3"/><path d="M870.3 29.6c0-9 2.2-15.4 6.6-18.7 4.4-3.4 9.5-5.1 15.4-5.1 2.9 0 5.7.4 8.3 1a16.9 16.9 0 0 1 11.8 11.3c1.2 3.1 1.8 7 1.8 11.6v82.8l.1 22.2c.1 7.1 1 14 2.8 20.7a67.8 67.8 0 0 0 27.5 38.8c5.9 4.4 9.8 9.2 11.7 14.4 2 5.2 1 10.8-2.6 16.6a20.3 20.3 0 0 1-22.8 9c-2.2-.5-4.3-1.5-6.3-3a126.4 126.4 0 0 1-31.3-35 180 180 0 0 1-12 17.6A123 123 0 0 1 865 231c-2 1.8-4.5 3-7.6 3.8-3 .7-6 1.2-8.9 1.4-3 .2-6.3-.4-9.6-1.7-3.3-1.2-6-3.7-8.2-7.4-3.7-5.8-4.5-11.3-2.5-16.4 2-5.2 5.9-10 11.6-14.6a84.5 84.5 0 0 0 18.9-20.1 70.7 70.7 0 0 0 8.9-20.3 85 85 0 0 0 2.6-21v-105z" class="st5"/><path d="M963.6 135h-16.2a41 41 0 0 1-12.3-1.5c-3.2-1-5.6-2.4-7.3-4.1a12.6 12.6 0 0 1-3.4-6 32.2 32.2 0 0 1 0-14.3c.5-2.3 1.6-4.3 3.4-6 1.7-1.8 4.1-3.2 7.3-4.3 3-1.1 7.2-1.7 12.3-1.7h16.2V29.6c0-9 2-15.4 5.9-18.7a20.2 20.2 0 0 1 26.9 0c3.9 3.3 5.9 9.6 5.9 18.7V217c0 4.7-.6 8.7-1.7 11.8a20.7 20.7 0 0 1-4.3 7.4 14.1 14.1 0 0 1-6.1 3.8 24.2 24.2 0 0 1-14.6 0 14 14 0 0 1-6.1-3.8 20.5 20.5 0 0 1-4.3-7.4c-1-3.1-1.6-7-1.6-11.8v-82z" class="st4"/><path d="M1025 29.6c0-9 2-15.4 5.9-18.7a20.2 20.2 0 0 1 26.9 0c4 3.3 5.9 9.6 5.9 18.8V217c0 4.7-.6 8.7-1.7 11.8a20.7 20.7 0 0 1-4.2 7.4 14.1 14.1 0 0 1-6.2 3.8 24.2 24.2 0 0 1-14.5 0 14 14 0 0 1-6.2-3.8 20.5 20.5 0 0 1-4.3-7.4c-1-3.1-1.6-7-1.6-11.8V29.7z" class="st1"/><path d="M1332.7 46.4a58.3 58.3 0 0 0-30.7-32.7 56.2 56.2 0 0 0-24.4-5.2h-89.4a56 56 0 0 0-24.6 5.2 58.3 58.3 0 0 0-30.6 32.6 60 60 0 0 0-4 21.8v16.4a60.5 60.5 0 0 0 9.9 33.6c1.5 2.2 3.2 4.3 5.1 6.2v.1l1.5 1.4.9.8c.4.5 1 .9 1.5 1.3l.7.6a57.2 57.2 0 0 0 39.2 12.2h90.5a57 57 0 0 0 24.8-4l2.2-1v-.2a49 49 0 0 0 23.6-20.7c5.3-9.2 8-19.3 8-30.3V68c0-7.3-1.4-14.5-4.2-21.6zm-152 5.6 1-.8c3.5-2.6 8-4 13.5-4.5H1271l1 .1a24.3 24.3 0 0 1 3.2.5l.5.1 2 .5.7.3 1.3.4a17 17 0 0 1 7 5.3 28 28 0 0 1 5.6 17.7v6a27 27 0 0 1-5.6 17.3c-3.8 4.8-9.6 7.3-17.4 7.7h-73c-7.9-.4-13.7-3-17.4-7.7a27 27 0 0 1-5.6-17.3v-6a28 28 0 0 1 7-19.4c.2 0 .3-.1.3-.2z" class="st0"/><path d="M1352.3 211.6a13 13 0 0 0-3.7-6 19 19 0 0 0-7.6-4.1c-3.3-1-7.5-1.5-12.7-1.5h-23v-26.8a22.2 22.2 0 0 0-44.4 0V200h-55.4v-26.8a22.2 22.2 0 0 0-44.4 0V200h-23.4c-5.1 0-9.3.5-12.6 1.5a19 19 0 0 0-7.7 4.1c-1.8 1.7-3 3.8-3.7 6a27.9 27.9 0 0 0 0 14.3c.7 2.3 1.9 4.3 3.7 6 1.8 1.8 4.4 3.2 7.7 4.3 3.3 1 7.5 1.6 12.6 1.6h190.6c5.2 0 9.4-.5 12.7-1.6 3.2-1.1 5.8-2.6 7.6-4.3 1.9-1.7 3.1-3.7 3.7-6a27.9 27.9 0 0 0 0-14.3z" class="st2"/></svg>